<svg width="20" height="20" viewBox="0 0 20 20" fill="none" xmlns="http://www.w3.org/2000/svg">
<path opacity="0.4" d="M10.0001 4.41662V17.775C9.85841 17.775 9.70842 17.75 9.59175 17.6833L9.55841 17.6666C7.95842 16.7916 5.16675 15.875 3.35841 15.6333L3.11675 15.6C2.31675 15.5 1.66675 14.75 1.66675 13.95V3.88329C1.66675 2.89162 2.47508 2.14162 3.46675 2.22495C5.21675 2.36662 7.86675 3.24995 9.35008 4.17495L9.55841 4.29995C9.68341 4.37495 9.84175 4.41662 10.0001 4.41662Z" fill="#2AA866"/>
<path d="M18.3333 3.89165V13.95C18.3333 14.75 17.6833 15.5 16.8833 15.6L16.6083 15.6333C14.7917 15.875 11.9917 16.8 10.3917 17.6833C10.2833 17.75 10.15 17.775 10 17.775V4.41665C10.1583 4.41665 10.3167 4.37498 10.4417 4.29998L10.5833 4.20832C12.0667 3.27498 14.725 2.38332 16.475 2.23332H16.525C17.5167 2.14998 18.3333 2.89165 18.3333 3.89165Z" fill="#2AA866"/>
<path d="M6.45825 7.69995H4.58325C4.24159 7.69995 3.95825 7.41662 3.95825 7.07495C3.95825 6.73328 4.24159 6.44995 4.58325 6.44995H6.45825C6.79992 6.44995 7.08325 6.73328 7.08325 7.07495C7.08325 7.41662 6.79992 7.69995 6.45825 7.69995Z" fill="#292D32"/>
<path d="M7.08325 10.2H4.58325C4.24159 10.2 3.95825 9.91662 3.95825 9.57495C3.95825 9.23328 4.24159 8.94995 4.58325 8.94995H7.08325C7.42492 8.94995 7.70825 9.23328 7.70825 9.57495C7.70825 9.91662 7.42492 10.2 7.08325 10.2Z" fill="#292D32"/>
</svg>
