<svg width="20" height="20" viewBox="0 0 20 20" fill="none" xmlns="http://www.w3.org/2000/svg">
<path opacity="0.4" d="M15.8333 8.56671V14.525C15.8083 16.9 15.1583 17.5 12.6833 17.5H4.8167C2.30003 17.5 1.66667 16.875 1.66667 14.3917V8.56671C1.66667 6.31671 2.19167 5.59171 4.16667 5.47504C4.36667 5.46671 4.58336 5.45837 4.8167 5.45837H12.6833C15.2 5.45837 15.8333 6.08337 15.8333 8.56671Z" fill="#EAF6F0"/>
<path d="M18.3333 5.60833V11.4333C18.3333 13.6833 17.8083 14.4083 15.8333 14.525V8.56667C15.8333 6.08333 15.2 5.45833 12.6833 5.45833H4.8167C4.58336 5.45833 4.36667 5.46667 4.16667 5.475C4.19167 3.1 4.8417 2.5 7.3167 2.5H15.1833C17.7 2.5 18.3333 3.125 18.3333 5.60833Z" fill="#207E4D"/>
<path d="M5.80001 15.4667H4.36665C4.02499 15.4667 3.74165 15.1833 3.74165 14.8417C3.74165 14.5 4.02499 14.2167 4.36665 14.2167H5.80001C6.14168 14.2167 6.42501 14.5 6.42501 14.8417C6.42501 15.1833 6.15001 15.4667 5.80001 15.4667Z" fill="#207E4D"/>
<path d="M10.4583 15.4667H7.59166C7.24999 15.4667 6.96666 15.1833 6.96666 14.8417C6.96666 14.5 7.24999 14.2167 7.59166 14.2167H10.4583C10.8 14.2167 11.0833 14.5 11.0833 14.8417C11.0833 15.1833 10.8083 15.4667 10.4583 15.4667Z" fill="#207E4D"/>
<path d="M15.8333 9.8833H1.66667V11.1333H15.8333V9.8833Z" fill="#207E4D"/>
</svg>
