<svg width="20" height="20" viewBox="0 0 20 20" fill="none" xmlns="http://www.w3.org/2000/svg">
<path opacity="0.4" d="M13.4917 1.66663H6.51671C3.48338 1.66663 1.67505 3.47496 1.67505 6.50829V13.4833C1.67505 16.5166 3.48338 18.325 6.51671 18.325H13.4917C16.525 18.325 18.3334 16.5166 18.3334 13.4833V6.50829C18.3334 3.47496 16.525 1.66663 13.4917 1.66663Z" fill="#EAF6F0"/>
<path d="M8.42492 9.29175H6.21659C5.69159 9.29175 5.2666 9.71671 5.2666 10.2417V14.5084H8.42492V9.29175Z" fill="#207E4D"/>
<path opacity="0.4" d="M10.6332 5.5H9.36649C8.84149 5.5 8.4165 5.92501 8.4165 6.45001V14.5H11.5748V6.45001C11.5748 5.92501 11.1582 5.5 10.6332 5.5Z" fill="#207E4D"/>
<path d="M13.7916 10.7084H11.5833V14.5001H14.7416V11.6584C14.7333 11.1334 14.3082 10.7084 13.7916 10.7084Z" fill="#207E4D"/>
</svg>
