<svg width="20" height="20" viewBox="0 0 20 20" fill="none" xmlns="http://www.w3.org/2000/svg">
<path opacity="0.4" d="M18.3333 4.29163V7.37496C18.3333 9.24996 17.5833 9.99996 15.7083 9.99996H13.4583C11.5833 9.99996 10.8333 9.24996 10.8333 7.37496V4.29163C10.8333 2.41663 11.5833 1.66663 13.4583 1.66663H15.7083C17.5833 1.66663 18.3333 2.41663 18.3333 4.29163Z" fill="#207E4D"/>
<path opacity="0.4" d="M9.16675 12.625V15.7083C9.16675 17.5833 8.41675 18.3333 6.54175 18.3333H4.29175C2.41675 18.3333 1.66675 17.5833 1.66675 15.7083V12.625C1.66675 10.75 2.41675 10 4.29175 10H6.54175C8.41675 10 9.16675 10.75 9.16675 12.625Z" fill="#207E4D"/>
<path d="M12.3167 18.3334C12.0917 18.3334 11.8834 18.2084 11.7751 18.0167C11.6667 17.8167 11.6667 17.5834 11.7834 17.3834L12.5917 16.0333C12.7667 15.7333 13.1501 15.6417 13.4501 15.8167C13.7501 15.9917 13.8417 16.375 13.6667 16.675L13.5167 16.925C15.5751 16.3917 17.0917 14.525 17.0917 12.3083C17.0917 11.9667 17.3751 11.6833 17.7167 11.6833C18.0584 11.6833 18.3334 11.9667 18.3334 12.3167C18.3334 15.6333 15.6334 18.3334 12.3167 18.3334Z" fill="#207E4D"/>
<path d="M2.29175 8.30829C1.95008 8.30829 1.66675 8.03329 1.66675 7.68329C1.66675 4.36663 4.36675 1.66663 7.68341 1.66663C7.91675 1.66663 8.11675 1.79163 8.23341 1.98329C8.34175 2.18329 8.34175 2.41663 8.22508 2.61663L7.41675 3.95829C7.23341 4.25829 6.85008 4.35829 6.55841 4.17496C6.25841 3.99996 6.16675 3.61663 6.34175 3.31663L6.49175 3.06663C4.44175 3.59996 2.91675 5.46663 2.91675 7.68329C2.91675 8.03329 2.63341 8.30829 2.29175 8.30829Z" fill="#207E4D"/>
</svg>
