<svg width="20" height="20" viewBox="0 0 20 20" fill="none" xmlns="http://www.w3.org/2000/svg">
<path opacity="0.4" d="M17.4833 2.51663C16.7583 1.79163 15.7333 1.5083 14.7416 1.7583L6.57496 3.79996C5.19996 4.14163 4.14163 5.2083 3.79996 6.57496L1.7583 14.75C1.5083 15.7416 1.79163 16.7666 2.51663 17.4916C3.06663 18.0333 3.79163 18.3333 4.54163 18.3333C4.77496 18.3333 5.01663 18.3083 5.24996 18.2416L13.425 16.2C14.7916 15.8583 15.8583 14.8 16.2 13.425L18.2416 5.24996C18.4916 4.2583 18.2083 3.2333 17.4833 2.51663Z" fill="#2AA866"/>
<path d="M9.99994 13.2334C11.7857 13.2334 13.2333 11.7858 13.2333 10.0001C13.2333 8.21434 11.7857 6.76672 9.99994 6.76672C8.21421 6.76672 6.7666 8.21434 6.7666 10.0001C6.7666 11.7858 8.21421 13.2334 9.99994 13.2334Z" fill="#2AA866"/>
</svg>
