<svg width="20" height="20" viewBox="0 0 20 20" fill="none" xmlns="http://www.w3.org/2000/svg">
<path opacity="0.4" d="M17.7083 7.62494C15.7833 4.59994 12.9667 2.85828 10 2.85828C8.51667 2.85828 7.07501 3.29161 5.75834 4.09994C4.44167 4.91661 3.25834 6.10828 2.29167 7.62494C1.45834 8.93328 1.45834 11.0583 2.29167 12.3666C4.21667 15.3999 7.03334 17.1333 10 17.1333C11.4833 17.1333 12.925 16.6999 14.2417 15.8916C15.5583 15.0749 16.7417 13.8833 17.7083 12.3666C18.5417 11.0666 18.5417 8.93328 17.7083 7.62494ZM10 13.3666C8.13334 13.3666 6.63334 11.8583 6.63334 9.99994C6.63334 8.14161 8.13334 6.63328 10 6.63328C11.8667 6.63328 13.3667 8.14161 13.3667 9.99994C13.3667 11.8583 11.8667 13.3666 10 13.3666Z" fill="#EAF6F0"/>
<path d="M10 7.6167C8.69167 7.6167 7.625 8.68337 7.625 10C7.625 11.3084 8.69167 12.375 10 12.375C11.3083 12.375 12.3833 11.3084 12.3833 10C12.3833 8.6917 11.3083 7.6167 10 7.6167Z" fill="#EAF6F0"/>
</svg>
