<svg width="20" height="20" viewBox="0 0 20 20" fill="none" xmlns="http://www.w3.org/2000/svg">
<path opacity="0.4" d="M14.1667 7.49996C14.1667 10.725 11.3667 13.3333 7.91675 13.3333L7.14175 14.2666L6.68342 14.8167C6.29175 15.2833 5.54174 15.1833 5.28341 14.6249L4.16675 12.1666C2.65008 11.0999 1.66675 9.40829 1.66675 7.49996C1.66675 4.27496 4.46675 1.66663 7.91675 1.66663C10.4334 1.66663 12.6084 3.0583 13.5834 5.0583C13.9584 5.79997 14.1667 6.62496 14.1667 7.49996Z" fill="#207E4D"/>
<path d="M18.3333 10.7167C18.3333 12.625 17.3499 14.3167 15.8333 15.3834L14.7166 17.8417C14.4583 18.4 13.7083 18.5084 13.3166 18.0334L12.0833 16.55C10.0666 16.55 8.2666 15.6583 7.1416 14.2667L7.9166 13.3333C11.3666 13.3333 14.1666 10.725 14.1666 7.50001C14.1666 6.62501 13.9583 5.80002 13.5833 5.05835C16.3083 5.68335 18.3333 7.98333 18.3333 10.7167Z" fill="#207E4D"/>
<path d="M9.99992 8.125H5.83325C5.49159 8.125 5.20825 7.84167 5.20825 7.5C5.20825 7.15833 5.49159 6.875 5.83325 6.875H9.99992C10.3416 6.875 10.6249 7.15833 10.6249 7.5C10.6249 7.84167 10.3416 8.125 9.99992 8.125Z" fill="#207E4D"/>
</svg>
