<svg width="20" height="20" viewBox="0 0 20 20" fill="none" xmlns="http://www.w3.org/2000/svg">
<path opacity="0.4" d="M16.0834 6.59999V10.8917C16.0834 13.4583 14.6167 14.5583 12.4167 14.5583H5.09171C4.71671 14.5583 4.35838 14.525 4.02504 14.45C3.81671 14.4167 3.61672 14.3584 3.43339 14.2917C2.18339 13.825 1.42505 12.7417 1.42505 10.8917V6.59999C1.42505 4.03332 2.89171 2.93335 5.09171 2.93335H12.4167C14.2834 2.93335 15.625 3.72501 15.9834 5.53335C16.0417 5.86668 16.0834 6.20832 16.0834 6.59999Z" fill="#EAF6F0"/>
<path d="M18.5832 9.09997V13.3917C18.5832 15.9583 17.1166 17.0583 14.9166 17.0583H7.59157C6.9749 17.0583 6.41658 16.975 5.93324 16.7917C4.94158 16.425 4.26657 15.6667 4.0249 14.45C4.35824 14.525 4.71657 14.5583 5.09157 14.5583H12.4166C14.6166 14.5583 16.0832 13.4583 16.0832 10.8917V6.59997C16.0832 6.2083 16.0499 5.85833 15.9832 5.53333C17.5666 5.86666 18.5832 6.9833 18.5832 9.09997Z" fill="#207E4D"/>
<path d="M8.75006 10.9501C9.96509 10.9501 10.9501 9.96509 10.9501 8.75006C10.9501 7.53503 9.96509 6.55005 8.75006 6.55005C7.53503 6.55005 6.55005 7.53503 6.55005 8.75006C6.55005 9.96509 7.53503 10.9501 8.75006 10.9501Z" fill="#207E4D"/>
<path d="M3.9834 6.875C3.64173 6.875 3.3584 7.15833 3.3584 7.5V10C3.3584 10.3417 3.64173 10.625 3.9834 10.625C4.32506 10.625 4.6084 10.3417 4.6084 10V7.5C4.6084 7.15833 4.3334 6.875 3.9834 6.875Z" fill="#207E4D"/>
<path d="M13.5083 6.875C13.1666 6.875 12.8833 7.15833 12.8833 7.5V10C12.8833 10.3417 13.1666 10.625 13.5083 10.625C13.85 10.625 14.1333 10.3417 14.1333 10V7.5C14.1333 7.15833 13.8583 6.875 13.5083 6.875Z" fill="#207E4D"/>
</svg>
