<svg width="24" height="24" viewBox="0 0 24 24" fill="none" xmlns="http://www.w3.org/2000/svg">
<path d="M16.77 17.0494H7.23C6.81 17.0494 6.43 16.7794 6.29 16.3894L2.13 4.73938C1.8 3.80938 2.86 3.01937 3.65 3.58937L7.65 6.44938C8.18 6.82938 8.94 6.59938 9.17 5.98938L11.06 0.949375C11.38 0.079375 12.61 0.079375 12.93 0.949375L14.82 5.98938C15.05 6.60938 15.8 6.82938 16.34 6.44938L20.34 3.58937C21.14 3.01937 22.19 3.81938 21.86 4.73938L17.7 16.3894C17.57 16.7794 17.19 17.0494 16.77 17.0494Z" fill="#EAF6F0"/>
<path d="M17 20.0703H7C6.59 20.0703 6.25 19.7303 6.25 19.3203C6.25 18.9103 6.59 18.5703 7 18.5703H17C17.41 18.5703 17.75 18.9103 17.75 19.3203C17.75 19.7303 17.41 20.0703 17 20.0703Z" fill="#EAF6F0"/>
</svg>
