<svg width="20" height="20" viewBox="0 0 20 20" fill="none" xmlns="http://www.w3.org/2000/svg">
<path opacity="0.4" d="M8.74154 1.8583L4.58322 3.41664C3.62488 3.77498 2.84155 4.9083 2.84155 5.9333V12.125C2.84155 13.1083 3.49156 14.4 4.28323 14.9916L7.86655 17.6666C9.04155 18.55 10.9749 18.55 12.1499 17.6666L15.7332 14.9916C16.5249 14.4 17.1749 13.1083 17.1749 12.125V5.9333C17.1749 4.9083 16.3915 3.77498 15.4332 3.41664L11.2749 1.8583C10.5665 1.59997 9.43321 1.59997 8.74154 1.8583Z" fill="#EAF6F0"/>
<path d="M9.91681 9.41661C9.93348 9.41661 9.95014 9.41661 9.96681 9.41661H9.98349H10.0001C10.9585 9.38328 11.7085 8.60828 11.7168 7.64161C11.7168 6.65828 10.9168 5.85828 9.93349 5.85828C8.95016 5.85828 8.15015 6.65828 8.15015 7.64161C8.16681 8.59994 8.91681 9.38328 9.91681 9.41661Z" fill="#207E4D"/>
<path d="M11.825 11.1749C10.8167 10.5083 9.18337 10.5083 8.1667 11.1749C7.70004 11.4916 7.42505 11.9416 7.42505 12.4083C7.42505 12.8833 7.6917 13.3166 8.1667 13.6333C8.67504 13.9666 9.33337 14.1416 9.9917 14.1416C10.65 14.1416 11.3167 13.9749 11.8167 13.6333C12.2834 13.3166 12.5584 12.8666 12.5584 12.3999C12.5667 11.9249 12.3 11.4916 11.825 11.1749Z" fill="#207E4D"/>
</svg>
