<svg width="20" height="20" viewBox="0 0 20 20" fill="none" xmlns="http://www.w3.org/2000/svg">
<path opacity="0.4" d="M13.4917 1.66663H6.50841C3.47508 1.66663 1.66675 3.47496 1.66675 6.50829V13.4833C1.66675 16.525 3.47508 18.3333 6.50841 18.3333H13.4834C16.5167 18.3333 18.3251 16.525 18.3251 13.4916V6.50829C18.3334 3.47496 16.5251 1.66663 13.4917 1.66663Z" fill="#2AA866"/>
<path d="M12.9834 16.0416C12.6417 16.0416 12.3584 15.7583 12.3584 15.4166V12.1666C12.3584 11.825 12.6417 11.5416 12.9834 11.5416C13.3251 11.5416 13.6084 11.825 13.6084 12.1666V15.4166C13.6084 15.7583 13.3251 16.0416 12.9834 16.0416Z" fill="#2AA866"/>
<path d="M12.9834 6.83337C12.6417 6.83337 12.3584 6.55004 12.3584 6.20837V4.58337C12.3584 4.24171 12.6417 3.95837 12.9834 3.95837C13.3251 3.95837 13.6084 4.24171 13.6084 4.58337V6.20837C13.6084 6.55004 13.3251 6.83337 12.9834 6.83337Z" fill="#2AA866"/>
<path d="M7.0166 16.0416C6.67493 16.0416 6.3916 15.7583 6.3916 15.4166V13.7916C6.3916 13.45 6.67493 13.1666 7.0166 13.1666C7.35827 13.1666 7.6416 13.45 7.6416 13.7916V15.4166C7.6416 15.7583 7.3666 16.0416 7.0166 16.0416Z" fill="#2AA866"/>
<path d="M7.0166 8.45837C6.67493 8.45837 6.3916 8.17504 6.3916 7.83337V4.58337C6.3916 4.24171 6.67493 3.95837 7.0166 3.95837C7.35827 3.95837 7.6416 4.24171 7.6416 4.58337V7.83337C7.6416 8.17504 7.3666 8.45837 7.0166 8.45837Z" fill="#2AA866"/>
<path d="M12.9833 6.10828C11.7333 6.10828 10.7083 7.12494 10.7083 8.37494C10.7083 9.62494 11.7249 10.6499 12.9833 10.6499C14.2333 10.6499 15.2499 9.63328 15.2499 8.37494C15.2499 7.11661 14.2333 6.10828 12.9833 6.10828Z" fill="#2AA866"/>
<path d="M7.01667 9.35828C5.76667 9.35828 4.75 10.3749 4.75 11.6333C4.75 12.8916 5.76667 13.8999 7.01667 13.8999C8.26667 13.8999 9.29167 12.8833 9.29167 11.6333C9.29167 10.3833 8.275 9.35828 7.01667 9.35828Z" fill="#2AA866"/>
</svg>
