<svg width="20" height="20" viewBox="0 0 20 20" fill="none" xmlns="http://www.w3.org/2000/svg">
<path opacity="0.4" d="M6.50834 1.66663H13.4833C16.525 1.66663 18.3333 3.47496 18.3333 6.50829V13.4833C18.3333 16.5166 16.525 18.325 13.4917 18.325H6.50834C3.47501 18.3333 1.66667 16.525 1.66667 13.4916V6.50829C1.66667 3.47496 3.47501 1.66663 6.50834 1.66663Z" fill="#EAF6F0"/>
<path d="M14.7417 11.2333C14.675 11.0833 14.5583 10.9583 14.4 10.8917C14.325 10.8583 14.2417 10.8417 14.1583 10.8417H5.83333C5.49166 10.8417 5.20833 11.125 5.20833 11.4667C5.20833 11.8083 5.49166 12.0917 5.83333 12.0917H12.6583L11.2667 13.4833C11.025 13.725 11.025 14.125 11.2667 14.3667C11.3917 14.4917 11.55 14.55 11.7083 14.55C11.8667 14.55 12.025 14.4917 12.15 14.3667L14.6083 11.9083C14.6667 11.85 14.7083 11.7833 14.7417 11.7083C14.8083 11.55 14.8083 11.3833 14.7417 11.2333Z" fill="#EAF6F0"/>
<path d="M5.25833 8.76661C5.32499 8.91661 5.44166 9.04161 5.59999 9.10828C5.67499 9.14161 5.74999 9.15828 5.83333 9.15828H14.1667C14.5083 9.15828 14.7917 8.87494 14.7917 8.53328C14.7917 8.19161 14.5083 7.90828 14.1667 7.90828H7.34166L8.73333 6.51661C8.97499 6.27494 8.97499 5.87494 8.73333 5.63328C8.49166 5.39161 8.09166 5.39161 7.85 5.63328L5.39166 8.09161C5.33333 8.14994 5.29166 8.21661 5.25833 8.29161C5.19166 8.44994 5.19166 8.61661 5.25833 8.76661Z" fill="#207E4D"/>
</svg>
