<svg width="20" height="20" viewBox="0 0 20 20" fill="none" xmlns="http://www.w3.org/2000/svg">
<path d="M18.3333 9.14159V10.8583C18.3333 11.3166 17.9667 11.6916 17.5 11.7083H15.8667C14.9667 11.7083 14.1417 11.0499 14.0667 10.1499C14.0167 9.62494 14.2167 9.13327 14.5667 8.79161C14.875 8.47494 15.3 8.29163 15.7667 8.29163H17.5C17.9667 8.30829 18.3333 8.68326 18.3333 9.14159Z" fill="#EAF6F0"/>
<path opacity="0.4" d="M14.5667 8.79162C14.2167 9.13328 14.0168 9.62495 14.0668 10.15C14.1418 11.05 14.9667 11.7083 15.8667 11.7083H17.5001V12.9166C17.5001 15.4166 15.8334 17.0833 13.3334 17.0833H5.83341C3.33341 17.0833 1.66675 15.4166 1.66675 12.9166V7.08329C1.66675 4.81663 3.03342 3.23329 5.15842 2.96662C5.37508 2.93329 5.60008 2.91663 5.83341 2.91663H13.3334C13.5501 2.91663 13.7584 2.92495 13.9584 2.95828C16.1084 3.20828 17.5001 4.79996 17.5001 7.08329V8.29164H15.7667C15.3001 8.29164 14.8751 8.47495 14.5667 8.79162Z" fill="#207E4D"/>
<path d="M10.8333 8.125H5.83325C5.49159 8.125 5.20825 7.84167 5.20825 7.5C5.20825 7.15833 5.49159 6.875 5.83325 6.875H10.8333C11.1749 6.875 11.4583 7.15833 11.4583 7.5C11.4583 7.84167 11.1749 8.125 10.8333 8.125Z" fill="#207E4D"/>
</svg>
